# xmcd
#
# Track frame offsets:
#	150
#	20710
#	37713
#	52585
#	68853
#	89890
#	109425
#	129595
#	145580
#	165330
#	185983
#	203025
#	220518
#	237375
#	248903
#	277200
#
# Disc length: 4070 seconds
#
# Revision: 1
# Processed by: cddbd v1.4PL0 Copyright (c) Steve Scherf et al.
# Submitted via: EasyCDDAExtractor 6.0.0.1
#
DISCID=eb0fe410
DTITLE=Gladys Knight and The Pips - The Best of
DYEAR=1987
DGENRE=Blues
TTITLE0=Make Yours A Happy Home
TTITLE1=Best Thing That Ever Happened To Me
TTITLE2=I Feel A Song
TTITLE3=The Going Up And The Coming Downs
TTITLE4=Midnight Train To Georgia
TTITLE5=On And On
TTITLE6=Where Peaceful Waters Flow
TTITLE7=I've Got To Use My Imagination
TTITLE8=I Can See Clearly Now
TTITLE9=Try To Remember - The Way We Were
TTITLE10=Storms Of Troubled Time
TTITLE11=So Sad The Song
TTITLE12=Once In A Lifetime Thing
TTITLE13=Part Time Love
TTITLE14=You And Me Against The World
TTITLE15=Feel Like Makin' Love
EXTD=
EXTT0=
EXTT1=
EXTT2=
EXTT3=
EXTT4=
EXTT5=
EXTT6=
EXTT7=
EXTT8=
EXTT9=
EXTT10=
EXTT11=
EXTT12=
EXTT13=
EXTT14=
EXTT15=
PLAYORDER=
